<?xml version="1.0" encoding="UTF-8"?>
<!-- Generator: Adobe Illustrator 14.0.0, SVG Export Plug-In . SVG Version: 6.00 Build 43363)  -->
<!DOCTYPE svg PUBLIC "-//W3C//DTD SVG 1.1//EN" "http://www.w3.org/Graphics/SVG/1.1/DTD/svg11.dtd">
<svg version="1.1" id="Layer_1" xmlns="http://www.w3.org/2000/svg" xmlns:xlink="http://www.w3.org/1999/xlink" x="0px" y="0px" width="152px" height="42px" viewBox="0 0 152.09 42.765" style="enable-background:new 0 0 152.09 42.765;" xml:space="preserve">
<g>
	<path style="fill-rule:evenodd;clip-rule:evenodd;fill:#FFFFFF;" d="M120.37,8.167c1.088,0,2,0.894,2,1.998   c0,1.105-0.912,2.018-2,2.018c-1.086,0-1.98-0.912-1.98-2.018C118.39,9.06,119.284,8.167,120.37,8.167L120.37,8.167z    M139.327,29.384c-0.088,0.877-0.492,1.456-2.141,1.911c-1.297,0.421-1.139,1.105,0.176,1.158c3.543-0.509,4.646-0.422,7.82-0.07   c1.246-0.018,1.035-0.824,0.264-1.193c-1.859-0.719-2.156-0.736-2.525-2.577l-0.141-18.589c0-1.069,0.404-2.314-0.736-2.033   c-2.121,0.842-2.297,0.912-4.225,1.578c-1.018,0.438-0.633,0.93,0.104,1.175c1.035,0.421,1.123,1.052,1.176,1.806L139.327,29.384   L139.327,29.384z M128.419,29.279c-0.086,0.877-0.49,1.456-2.139,1.911c-1.297,0.422-1.141,1.105,0.176,1.158   c3.541-0.509,4.646-0.421,7.82-0.07c1.244-0.018,1.035-0.824,0.264-1.192c-1.859-0.72-2.158-0.737-2.525-2.577l-0.141-18.589   c0-1.069,0.404-2.315-0.736-2.034c-2.121,0.842-2.297,0.912-4.227,1.578c-1.018,0.438-0.631,0.93,0.105,1.175   c1.035,0.421,1.123,1.053,1.174,1.807L128.419,29.279L128.419,29.279z M118.478,21.966c-0.088-0.946-0.211-1.683-1.299-1.999   c-0.771-0.07-1.139-0.771-0.035-1.192c2.211-0.719,2.525-0.842,4.227-2.21c0.525-0.279,1.141-0.053,0.842,0.895   c-0.123,0.719-0.105,1.053-0.158,1.824l0.018,9.68c0.088,1.578,1.316,1.842,2.105,2.156c0.789,0.316,0.859,1.246-0.07,1.264   c-3.438-0.475-4.191-0.526-7.506,0.141c-1.105,0.017-1.35-0.824,0.018-1.316c1.367-0.49,1.824-0.719,1.895-1.894L118.478,21.966   L118.478,21.966z M88.052,20.178c0.771-8.26,6.068-11.715,13.521-12.328c7.855,0.053,8.979,0.579,8.873,4.963   c0.053,1.578-1,1.946-1.736,0.157c-0.842-1.612-1.543-2.542-3.543-3.366c-6.768-1.525-11.783,2.823-12.082,10.223   c-0.473,10.435,11.205,13.485,13.625,9.593c0.51-1.017,0.51-3.718,0.439-5.944c-0.422-1.473-1.824-1.333-3.191-1.387   c-1.475,0.105-2-1.561-0.018-1.543c1.91,0,5.594,0.176,10.328-0.262c1.402,0.053,1.508,1.332-0.211,1.525   c-0.736,0.14-2.297,0.122-2.508,1.35c-0.174,6.348,1.299,6.962-3.488,8.698c-6.104,1.438-12.68,0.771-16.396-2.823   C89.999,27.561,87.913,24.176,88.052,20.178L88.052,20.178z M72.289,24.421c0.684-6.874,6.382-8.487,9.312-8.505   c3.471,0.105,4.576,1.245,4.611,2.402c0.035,1.158-0.789,1.771-1.684,1.525c-1.912-0.49-1.543-2.508-4.086-2.665   c-2.875,0.421-4.611,3.647-4.121,7.505c0.492,3.858,4.227,6.734,8.785,4.385c1.105-0.246,1.193,0.666,0.299,1.297   C77.022,35.522,71.938,28.174,72.289,24.421L72.289,24.421z M46.406,12.883c-0.175-2.367-0.912-1.648-2.717-2.367   c-1.456-0.281-1.578-1.333-0.141-1.386c2.596,0.192,3.893,0.228,6.049-0.105c0.982,0.158,1.404,0.562,1.771,1.508   c1.807,3.823,4.437,9.558,6.243,13.38c0.315,0.685,0.491,0.824,0.894-0.053l5.331-13.625c0.597-1.157,1.245-1.438,3.104-1.262   c3.209,0.052,3.998-0.036,5.576-0.211c1.367,0.053,1.279,1.104-0.07,1.473c-2.07,0.018-3.156,0.719-3.473,2.262l0.299,15.643   c0.333,2.332,1.543,2.402,3.717,2.964c0.982,0.438,0.771,1.122-0.07,1.351c-4.541-0.526-6.119-0.492-10.626-0.053   c-1.298,0.123-1.386-1,0.018-1.298c1.666-0.368,2.087-0.667,2.454-1.544l-0.332-15.08c-0.053-0.597-0.422-0.597-0.649,0.105   l-6.365,15.904c-0.597,1.351-0.859,1.351-1.508,0.299l-7.522-16.291c-0.229-0.562-0.509-0.386-0.544-0.035l0.07,14.379   c0.21,1.666,1.368,1.771,3.718,2.508c0.666,0.211,0.701,0.771,0.157,1.122c-4.595-0.386-5.331-0.386-9.592,0.158   c-0.666,0-0.981-0.982,0.053-1.122c2.263-0.648,2.876-0.684,3.209-1.982L46.406,12.883L46.406,12.883z"/>
	<path style="fill-rule:evenodd;clip-rule:evenodd;fill:none;stroke:#FFFFFF;stroke-width:0.5;" d="M7.256,20.399   c-1.19-4.237-0.493-8.158-0.493-12.9C11.003,5.39,15.203,5.2,19.752,5.2c3.936,0,9.517,0.508,12.876,2.293   c0.345,4.47,0.543,8.405-0.605,13.485c-1.147,5.079-4.487,12.095-12.104,17.278C11.608,32.809,8.892,26.224,7.256,20.399   L7.256,20.399z"/>
	<path style="fill-rule:evenodd;clip-rule:evenodd;fill:#ED1C2E;stroke:#FFFFFF;stroke-width:0.5;" d="M7.351,20.409   c-1.182-4.205-0.49-8.096-0.49-12.803c4.209-2.092,8.376-2.281,12.892-2.281c3.905,0,9.443,0.504,12.778,2.275   c0.342,4.437,0.539,8.342-0.601,13.383c-1.139,5.041-4.454,12.004-12.012,17.148C11.669,32.725,8.974,26.19,7.351,20.409   L7.351,20.409z"/>
	<path style="fill-rule:evenodd;clip-rule:evenodd;fill:#FFFFFF;" d="M11.292,14.243l-4.325,4.853   c0.912,4.237,3.698,13.176,12.917,19.167c9.136-6.288,11.947-15.035,12.5-19.334l-4.308-4.696l-4.375,4.433l-4.029-4.395   l-4.015,4.34L11.292,14.243L11.292,14.243z"/>
	<path style="fill-rule:evenodd;clip-rule:evenodd;fill:#FFFFFF;" d="M11.265,11.317c0.658-0.002,1.91,0.098,2.207,0.312   c0.104-0.166,0.863-1.588,0.936-1.995c-0.272-0.104-0.524,0.256-0.635,0.283c-0.193-0.3-0.384-0.3-0.477-0.286   c-0.162,0.048-0.076,0.104-0.011,0.124c1.022,0.863-0.49,1.72-0.753,0.853c-1.301,0.107-0.963-0.939-0.628-1.07   c0.221-0.065,0.042-0.1-0.028-0.124c-0.082-0.017-0.244-0.028-0.266,0.041c0.021-0.515-0.041-0.912-0.349-1.084   c-0.308,0.173-0.364,0.573-0.343,1.088c-0.021-0.069-0.182-0.06-0.264-0.042c-0.068,0.024-0.248,0.059-0.029,0.125   c0.336,0.131,0.674,1.178-0.627,1.07c-0.264,0.866-1.774,0.01-0.754-0.854C9.312,9.739,9.4,9.682,9.238,9.633   C9.14,9.621,8.955,9.621,8.759,9.92C8.648,9.893,8.396,9.534,8.123,9.637c0.076,0.408,0.834,1.829,0.936,1.995   C9.357,11.417,10.607,11.318,11.265,11.317L11.265,11.317z M11.265,12.422c0.479-0.002,1.23,0.047,1.682,0.188   c0.111-0.235,0.309-0.629,0.415-0.788c-0.387-0.23-1.575-0.3-2.095-0.298c-0.521,0.001-1.709,0.07-2.096,0.302   c0.105,0.158,0.305,0.553,0.412,0.787C10.037,12.472,10.787,12.423,11.265,12.422L11.265,12.422z M12.449,10.827l0.31,0.441   l-0.694-0.066L12.449,10.827L12.449,10.827z M12.038,11.75c-0.136,0-0.246,0.109-0.246,0.242c0,0.141,0.11,0.243,0.246,0.243   c0.123,0,0.236-0.103,0.236-0.243C12.274,11.86,12.161,11.75,12.038,11.75L12.038,11.75z M12.775,11.903   c-0.127,0-0.232,0.104-0.232,0.236c0,0.127,0.105,0.232,0.232,0.232s0.23-0.105,0.23-0.232   C13.005,12.006,12.902,11.903,12.775,11.903L12.775,11.903z M11.266,13.047c-0.92,0.002-1.605-0.088-1.605-0.202   s0.681-0.229,1.605-0.231c0.926-0.001,1.605,0.115,1.605,0.229S12.186,13.045,11.266,13.047L11.266,13.047z M11.263,11.709   c0.13,0,0.24,0.107,0.24,0.24s-0.11,0.242-0.24,0.242c-0.126,0-0.239-0.109-0.239-0.242S11.137,11.709,11.263,11.709L11.263,11.709   z M10.515,11.75c0.135,0,0.242,0.109,0.242,0.242c0,0.141-0.107,0.243-0.242,0.243c-0.121,0-0.237-0.103-0.237-0.243   C10.278,11.86,10.394,11.75,10.515,11.75L10.515,11.75z M9.777,11.903c0.129,0,0.232,0.104,0.232,0.236   c0,0.127-0.104,0.232-0.232,0.232c-0.127,0-0.229-0.105-0.229-0.232C9.547,12.006,9.65,11.903,9.777,11.903L9.777,11.903z    M11.259,10.337l0.5,0.851h-0.979L11.259,10.337L11.259,10.337z M10.104,10.827l-0.31,0.441l0.693-0.066L10.104,10.827   L10.104,10.827z"/>
	<path style="fill-rule:evenodd;clip-rule:evenodd;fill:#FFFFFF;" d="M28.069,11.317c0.657-0.002,1.909,0.098,2.208,0.312   c0.104-0.166,0.862-1.588,0.935-1.995c-0.272-0.104-0.524,0.256-0.636,0.283c-0.193-0.3-0.383-0.3-0.477-0.286   c-0.162,0.048-0.075,0.104-0.01,0.124c1.021,0.863-0.49,1.72-0.752,0.853c-1.303,0.107-0.964-0.939-0.629-1.07   c0.221-0.065,0.041-0.1-0.027-0.124c-0.084-0.017-0.246-0.028-0.267,0.041c0.021-0.515-0.041-0.912-0.349-1.084   c-0.309,0.173-0.364,0.573-0.343,1.088c-0.021-0.069-0.182-0.06-0.265-0.042c-0.068,0.024-0.248,0.059-0.029,0.125   c0.338,0.131,0.674,1.178-0.627,1.07c-0.263,0.866-1.773,0.01-0.754-0.854c0.066-0.02,0.155-0.076-0.008-0.125   c-0.096-0.013-0.281-0.013-0.479,0.287c-0.11-0.027-0.362-0.387-0.636-0.283c0.075,0.408,0.835,1.829,0.936,1.995   C26.16,11.417,27.412,11.318,28.069,11.317L28.069,11.317z M28.068,12.422c0.48-0.002,1.23,0.047,1.684,0.188   c0.109-0.235,0.307-0.629,0.414-0.788c-0.387-0.23-1.576-0.3-2.096-0.298c-0.52,0.001-1.709,0.07-2.096,0.302   c0.106,0.158,0.305,0.553,0.413,0.787C26.839,12.472,27.589,12.423,28.068,12.422L28.068,12.422z M29.252,10.827l0.31,0.441   l-0.695-0.066L29.252,10.827L29.252,10.827z M28.841,11.75c-0.137,0-0.246,0.109-0.246,0.242c0,0.141,0.109,0.243,0.246,0.243   c0.123,0,0.236-0.103,0.236-0.243C29.078,11.86,28.964,11.75,28.841,11.75L28.841,11.75z M29.579,11.903   c-0.126,0-0.233,0.104-0.233,0.236c0,0.127,0.107,0.232,0.233,0.232s0.229-0.105,0.229-0.232   C29.808,12.006,29.705,11.903,29.579,11.903L29.579,11.903z M28.07,13.047c-0.92,0.002-1.605-0.088-1.605-0.202   s0.68-0.229,1.605-0.231c0.926-0.001,1.605,0.115,1.605,0.229S28.99,13.045,28.07,13.047L28.07,13.047z M28.067,11.709   c0.13,0,0.239,0.107,0.239,0.24s-0.109,0.242-0.239,0.242c-0.126,0-0.239-0.109-0.239-0.242S27.941,11.709,28.067,11.709   L28.067,11.709z M27.319,11.75c0.134,0,0.243,0.109,0.243,0.242c0,0.141-0.109,0.243-0.243,0.243c-0.121,0-0.237-0.103-0.237-0.243   C27.082,11.86,27.198,11.75,27.319,11.75L27.319,11.75z M26.582,11.903c0.127,0,0.231,0.104,0.231,0.236   c0,0.127-0.104,0.232-0.231,0.232c-0.128,0-0.23-0.105-0.23-0.232C26.351,12.006,26.454,11.903,26.582,11.903L26.582,11.903z    M28.062,10.337l0.502,0.851h-0.979L28.062,10.337L28.062,10.337z M26.908,10.827l-0.311,0.441l0.694-0.066L26.908,10.827   L26.908,10.827z"/>
	<path style="fill-rule:evenodd;clip-rule:evenodd;fill:#ED1C2E;" d="M10.757,22.418c0.062-0.135,0.207-0.55,0.269-0.684   c-0.062-0.146-0.207-0.28-0.331-0.28c0.062-0.135,0.297-0.312,0.252-0.432c-0.045-0.121-0.152-0.11-0.395-0.235   c0.087-0.172,0.264-0.262,0.391-0.286c0.129-0.024,0.131-0.214,0.355-0.335s0.43-0.152,0.756-0.135   c0.328,0.018,1.406,0.314,1.126,1.558c0.622,1.243,2.776-0.415,3.543-0.415c-0.146,0.28-0.353,0.561-0.487,0.829   c0.208,0.146,0.487,0,0.694,0c-0.207,0.684-0.621,0.964-0.974,1.243c0.353,1.107,1.63,0.68,2.775,0.549   c-0.141,0.38-0.621,0.414-0.828,0.693c0.391,0.412,0.828,0.964,1.108,1.523c-0.515-0.342-1.595-0.693-1.947-0.828   c-0.694-0.281-2.082-0.281-2.776,0c0.145,0.269,0.414,0.414,0.633,0.549c-0.354,0.693-1.047,0.279-1.461,0.145   c-0.353,0.27-1.002,0.29-1.182,0.135c0,0,0-0.173,0.207-0.324c0.143-0.197-0.414-0.235-0.559-0.504   c0.003-0.256,0.27-0.004,0.424-0.281C12,24.209,10.55,24.075,10.757,22.418L10.757,22.418z M11.741,20.446   c0.075,0,0.138,0.061,0.138,0.137c0,0.075-0.062,0.137-0.138,0.137s-0.138-0.062-0.138-0.137   C11.603,20.506,11.666,20.446,11.741,20.446L11.741,20.446z"/>
	<path style="fill-rule:evenodd;clip-rule:evenodd;fill:#ED1C2E;" d="M20.564,22.618c0.062-0.135,0.207-0.548,0.27-0.683   c-0.062-0.146-0.207-0.28-0.332-0.28c0.062-0.135,0.297-0.311,0.252-0.432s-0.152-0.11-0.394-0.234   c0.087-0.173,0.263-0.263,0.39-0.287c0.129-0.023,0.132-0.214,0.355-0.334c0.225-0.121,0.43-0.152,0.756-0.135   c0.328,0.018,1.406,0.314,1.127,1.557c0.621,1.243,2.775-0.414,3.542-0.414c-0.146,0.279-0.353,0.56-0.487,0.828   c0.208,0.146,0.487,0,0.695,0c-0.208,0.684-0.622,0.964-0.975,1.243c0.353,1.108,1.63,0.681,2.775,0.55   c-0.141,0.379-0.621,0.414-0.828,0.693c0.391,0.411,0.828,0.963,1.108,1.522c-0.515-0.342-1.595-0.694-1.947-0.829   c-0.694-0.279-2.082-0.279-2.776,0c0.145,0.27,0.414,0.415,0.633,0.549c-0.354,0.694-1.047,0.28-1.461,0.146   c-0.353,0.27-1.002,0.29-1.182,0.135c0,0,0-0.173,0.208-0.325c0.142-0.195-0.415-0.234-0.56-0.504   c0.004-0.255,0.27-0.003,0.425-0.279C21.806,24.411,20.357,24.276,20.564,22.618L20.564,22.618z M21.529,20.645   c0.078,0,0.141,0.064,0.141,0.141c0,0.078-0.062,0.142-0.141,0.142s-0.141-0.063-0.141-0.142   C21.388,20.709,21.451,20.645,21.529,20.645L21.529,20.645z"/>
	<path style="fill-rule:evenodd;clip-rule:evenodd;fill:#ED1C2E;" d="M15.867,29.561c0.062-0.135,0.207-0.549,0.27-0.684   c-0.062-0.146-0.207-0.279-0.332-0.279c0.062-0.135,0.297-0.311,0.252-0.432s-0.152-0.111-0.394-0.235   c0.087-0.173,0.263-0.263,0.39-0.286c0.129-0.024,0.132-0.214,0.355-0.336c0.225-0.12,0.43-0.151,0.756-0.135   c0.328,0.018,1.406,0.314,1.127,1.558c0.621,1.243,2.775-0.414,3.542-0.414c-0.145,0.28-0.353,0.56-0.487,0.829   c0.208,0.145,0.487,0,0.695,0c-0.208,0.684-0.622,0.963-0.975,1.242c0.353,1.109,1.63,0.681,2.776,0.55   c-0.142,0.38-0.622,0.414-0.829,0.694c0.391,0.41,0.829,0.963,1.108,1.522c-0.515-0.342-1.595-0.694-1.947-0.829   c-0.694-0.279-2.082-0.279-2.776,0c0.146,0.27,0.414,0.414,0.633,0.549c-0.354,0.694-1.047,0.28-1.461,0.146   c-0.353,0.27-1.002,0.29-1.181,0.135c0,0,0-0.173,0.207-0.325c0.142-0.197-0.415-0.234-0.56-0.504   c0.004-0.256,0.27-0.004,0.425-0.279C17.109,31.353,15.66,31.218,15.867,29.561L15.867,29.561z M16.841,27.588   c0.072,0,0.129,0.059,0.129,0.129s-0.057,0.129-0.129,0.129c-0.07,0-0.129-0.059-0.129-0.129S16.771,27.588,16.841,27.588   L16.841,27.588z"/>
	<path style="fill-rule:evenodd;clip-rule:evenodd;fill:#FFFFFF;" d="M19.746,12.571c-0.197,0.177-0.273,0.242-0.229,0.418h0.494   C20.035,12.795,19.962,12.72,19.746,12.571L19.746,12.571z M22.593,7.126c0,0-0.604,0.255-1.16,0.014   c-0.604-0.263-1.149-0.353-1.584-0.159v5.311c0.375-0.18,0.79-0.11,1.377,0.031s0.933,0.135,1.367,0.062V7.126L22.593,7.126z    M22.773,7.129l0.459,0.436v5.266l-0.459-0.432V7.129L22.773,7.129z M23.125,12.975l-0.483-0.424   c-0.359,0.145-1.137-0.018-1.506-0.087c-0.617-0.118-0.869-0.193-1.277-0.011c0.221,0.128,0.359,0.308,0.349,0.525L23.125,12.975   L23.125,12.975z M16.382,12.979l0.482-0.426c0.359,0.146,1.137-0.017,1.506-0.086c0.618-0.117,0.871-0.193,1.277-0.01   c-0.221,0.128-0.359,0.307-0.348,0.525L16.382,12.979L16.382,12.979z M16.703,7.171l-0.459,0.435v5.266l0.459-0.432V7.171   L16.703,7.171z M16.882,7.126c0,0,0.611,0.255,1.168,0.014c0.604-0.263,1.148-0.353,1.584-0.159v5.311   c-0.376-0.18-0.791-0.11-1.377,0.031c-0.588,0.142-0.933,0.135-1.367,0.062L16.882,7.126L16.882,7.126z"/>
	<path style="fill-rule:evenodd;clip-rule:evenodd;fill:#ED1C2E;" d="M20.111,8.107c0.007-0.218,0.128-0.342,0.324-0.342   c0.174,0,0.283,0.097,0.291,0.252h-0.143c0-0.052-0.037-0.128-0.141-0.128c-0.107,0-0.19,0.1-0.19,0.249   c0,0.106,0.062,0.225,0.173,0.225c0.076,0,0.152-0.028,0.158-0.135h0.143c0.018,0.12-0.117,0.266-0.291,0.266   C20.252,8.494,20.104,8.363,20.111,8.107L20.111,8.107z M20.791,8.224c-0.013-0.192,0.107-0.397,0.34-0.387   c0.179,0,0.344,0.124,0.327,0.374c-0.007,0.158-0.09,0.342-0.335,0.348C20.875,8.553,20.798,8.352,20.791,8.224L20.791,8.224z    M20.933,8.172c0,0.128,0.045,0.256,0.197,0.256c0.12,0,0.186-0.098,0.186-0.225c0-0.076-0.014-0.231-0.186-0.231   C21.053,7.972,20.951,8,20.933,8.172L20.933,8.172z M21.606,8.618V7.924h0.142l0.287,0.469V7.924h0.141v0.693h-0.141l-0.28-0.469   v0.469H21.606L21.606,8.618z M20.708,9.934V9.239h0.49v0.125h-0.346v0.158h0.307v0.121h-0.307v0.291H20.708L20.708,9.934z    M21.365,10.01V9.315h0.148v0.695H21.365L21.365,10.01z M20.839,11.383h-0.338V10.69h0.328   C21.199,10.735,21.123,11.349,20.839,11.383L20.839,11.383z M20.643,11.266h0.142c0.189,0,0.203-0.452-0.007-0.452h-0.135V11.266   L20.643,11.266z M21.216,11.169c-0.014-0.193,0.106-0.397,0.338-0.387c0.18,0,0.346,0.124,0.328,0.373   c-0.007,0.159-0.09,0.342-0.335,0.349C21.298,11.498,21.222,11.297,21.216,11.169L21.216,11.169z M21.357,11.118   c0,0.128,0.045,0.256,0.197,0.256c0.121,0,0.187-0.098,0.187-0.225c0-0.076-0.014-0.231-0.187-0.231   C21.478,10.917,21.375,10.946,21.357,11.118L21.357,11.118z M17.669,8.542V7.848h0.148v0.693H17.669L17.669,8.542z M17.978,8.459   V7.765h0.141l0.287,0.47v-0.47h0.141v0.694h-0.141l-0.28-0.471v0.471H17.978L17.978,8.459z M17.462,10.01h-0.338V9.315h0.328   C17.822,9.36,17.746,9.975,17.462,10.01L17.462,10.01z M17.266,9.892h0.142c0.189,0,0.203-0.452-0.007-0.452h-0.135V9.892   L17.266,9.892z M17.794,9.557c-0.014-0.193,0.107-0.396,0.338-0.387c0.18,0,0.346,0.124,0.328,0.373   c-0.007,0.158-0.09,0.342-0.335,0.349C17.876,9.885,17.801,9.685,17.794,9.557L17.794,9.557z M17.936,9.505   c0,0.128,0.044,0.255,0.196,0.255c0.121,0,0.188-0.096,0.188-0.224c0-0.076-0.015-0.231-0.188-0.231   C18.056,9.305,17.953,9.333,17.936,9.505L17.936,9.505z M18.595,9.847V9.153h0.211l0.128,0.525l0.128-0.525h0.207v0.694h-0.143   V9.294l-0.12,0.553h-0.149l-0.12-0.553v0.553H18.595L18.595,9.847z M17.439,11.518v-0.693h0.148v0.693H17.439L17.439,11.518z    M17.75,11.432v-0.694h0.142l0.286,0.47v-0.47h0.143v0.694h-0.143l-0.279-0.47v0.47H17.75L17.75,11.432z M18.468,11.045   c-0.015-0.193,0.106-0.396,0.338-0.387c0.18,0,0.346,0.124,0.328,0.373c-0.008,0.158-0.09,0.342-0.336,0.349   C18.55,11.374,18.474,11.172,18.468,11.045L18.468,11.045z M18.609,10.994c0,0.128,0.045,0.255,0.197,0.255   c0.121,0,0.186-0.096,0.186-0.225c0-0.075-0.014-0.23-0.186-0.23C18.73,10.793,18.626,10.821,18.609,10.994L18.609,10.994z"/>
</g>
</svg>